<svg width="56" height="55" viewBox="0 0 56 55" fill="none" xmlns="http://www.w3.org/2000/svg">
<path d="M46.5938 3.22255H39.7353C39.3563 2.58146 38.6514 2.14833 37.8438 2.14833H31.7894C31.0179 0.838106 29.5792 0 28 0C26.4208 0 24.982 0.838106 24.2106 2.14833H18.1562C17.3486 2.14833 16.6437 2.58146 16.2647 3.22255H9.40614C7.59686 3.22255 6.125 4.66823 6.125 6.44521V51.7773C6.125 53.5543 7.59686 54.9999 9.40614 54.9999H46.5938C48.403 54.9999 49.875 53.5543 49.875 51.7773V6.44521C49.875 4.66823 48.403 3.22255 46.5938 3.22255ZM24.9057 4.29677C25.3692 4.29677 25.7825 4.00974 25.937 3.58048C26.2453 2.7239 27.0744 2.14844 28 2.14844C28.9256 2.14844 29.7548 2.7239 30.0631 3.58059C30.2176 4.00984 30.6307 4.29677 31.0943 4.29677H37.8438V8.59364H32.9215C32.3176 8.59364 31.8278 9.07468 31.8278 9.66786C31.8278 10.261 32.3176 10.7421 32.9215 10.7421H37.8438C38.6514 10.7421 39.3564 10.309 39.7353 9.66786H43.3125V48.5546H12.6874V9.66786H16.2647C16.6437 10.309 17.3486 10.7421 18.1562 10.7421H23.0778C23.6818 10.7421 24.1715 10.261 24.1715 9.66786C24.1715 9.07468 23.6818 8.59364 23.0778 8.59364L18.1562 8.59375V4.29677H24.9057ZM47.6875 51.7773C47.6875 52.3697 47.1968 52.8515 46.5938 52.8515H9.40614C8.80305 52.8515 8.3125 52.3697 8.3125 51.7773V6.44521C8.3125 5.85288 8.80305 5.37099 9.40614 5.37099H15.9688V7.51942H11.5936C10.9897 7.51942 10.4999 8.00046 10.4999 8.59364V49.6288C10.4999 50.222 10.9897 50.703 11.5936 50.703H44.4062C45.0102 50.703 45.5 50.222 45.5 49.6288V8.59364C45.5 8.00046 45.0102 7.51942 44.4062 7.51942H40.0312V5.37099H46.5938C47.1968 5.37099 47.6875 5.85288 47.6875 6.44521V51.7773Z" fill="#000000"/>
<path d="M28 10.7419C28.6039 10.7419 29.0937 10.2609 29.0937 9.66773C29.0937 9.07454 28.6039 8.59351 28 8.59351H27.9992C27.3952 8.59351 26.9059 9.07454 26.9059 9.66773C26.9059 10.2609 27.3959 10.7419 28 10.7419Z" fill="#000000"/>
<path d="M20.3436 21.2161V23.9017C20.3436 25.0863 21.3249 26.05 22.5311 26.05H24.4452V27.9299C24.4452 29.1146 25.4265 30.0784 26.6327 30.0784H29.3671C30.5732 30.0784 31.5546 29.1146 31.5546 27.9299V26.05H33.4686C34.6748 26.05 35.6561 25.0863 35.6561 23.9017V21.2161C35.6561 20.0315 34.6748 19.0677 33.4686 19.0677H31.5546V17.1877C31.5546 16.0031 30.5732 15.0393 29.3671 15.0393H26.6327C25.4265 15.0393 24.4452 16.0031 24.4452 17.1877V19.0677H22.5311C21.3248 19.0677 20.3436 20.0315 20.3436 21.2161ZM25.5389 21.2162C26.1429 21.2162 26.6327 20.7351 26.6327 20.142L26.6325 17.1877H29.3671V20.142C29.3671 20.7351 29.8568 21.2162 30.4608 21.2162L33.4686 21.2161V23.9016H30.4608C29.8568 23.9016 29.3671 24.3826 29.3671 24.9758V27.9299H26.6327V24.9758C26.6327 24.3826 26.1429 23.9016 25.5389 23.9016L22.5311 23.9017V21.2162H25.5389Z" fill="#000000"/>
<path d="M15.9688 35.6636C15.9688 36.2568 16.4585 36.7378 17.0625 36.7378H38.9375C39.5415 36.7378 40.0313 36.2568 40.0313 35.6636C40.0313 35.0704 39.5415 34.5894 38.9375 34.5894H17.0625C16.4584 34.5894 15.9688 35.0704 15.9688 35.6636Z" fill="#000000"/>
<path d="M38.9375 38.8862H17.0625C16.4585 38.8862 15.9688 39.3673 15.9688 39.9604C15.9688 40.5536 16.4585 41.0347 17.0625 41.0347H38.9375C39.5415 41.0347 40.0313 40.5536 40.0313 39.9604C40.0313 39.3673 39.5415 38.8862 38.9375 38.8862Z" fill="#000000"/>
<path d="M38.9375 43.1833H17.0625C16.4585 43.1833 15.9688 43.6644 15.9688 44.2576C15.9688 44.8508 16.4585 45.3318 17.0625 45.3318H38.9375C39.5415 45.3318 40.0313 44.8508 40.0313 44.2576C40.0313 43.6644 39.5415 43.1833 38.9375 43.1833Z" fill="#000000"/>
</svg>
