<svg width="182" height="160" viewBox="0 0 182 160" fill="none" xmlns="http://www.w3.org/2000/svg">
<path d="M149.38 122.395V154.33C149.38 133.753 132.7 117.073 112.124 117.073H96.157V122.395C96.157 142.972 112.837 159.652 133.413 159.652C135.272 159.652 156.017 159.652 154.703 159.652C169.4 159.652 181.669 147.737 181.669 133.04V95.7837H176.347C161.65 95.7837 149.38 107.698 149.38 122.395Z" fill="#BDBDBD"/>
<path d="M23.4886 131.671C27.5187 129.212 32.2006 127.718 37.2564 127.718H86.0503C85.8509 125.947 85.5124 124.218 85.5124 122.395V106.428H112.124C119.012 106.428 125.529 107.951 131.453 110.579C136.071 101.304 138.736 90.8825 138.736 79.8167V63.8496H0V79.8167C0 100.489 9.1147 118.992 23.4886 131.671Z" fill="#BDBDBD"/>
<path d="M88.4548 138.363H37.2563C28.4379 138.363 21.2893 145.511 21.2893 154.33V159.652H103.677C96.7808 154.134 91.4765 146.837 88.4548 138.363Z" fill="#BDBDBD"/>
<path d="M109.468 30.44C114.633 33.4241 121.127 31.5307 123.995 26.5469C126.971 21.4183 125.162 14.9062 120.108 12.0041L101.693 1.38036C96.8068 -1.49407 89.9513 0.356337 87.1343 5.24722C84.2216 10.2754 85.8726 16.8127 91.0221 19.7953L109.468 30.44Z" fill="#BDBDBD"/>
<path d="M72.176 53.2048H96.7589L104.225 39.691C104.2 39.6769 85.7803 29.0605 85.7803 29.0605L72.176 53.2048Z" fill="#BDBDBD"/>
</svg>
