<svg width="63" height="14" viewBox="0 0 63 14" fill="none" xmlns="http://www.w3.org/2000/svg">
<path d="M1.40497 9.25149C1.40497 10.2315 1.34897 10.3435 0.886966 10.3995L0.662966 10.4275C0.550966 10.5115 0.550966 10.8335 0.690966 10.9175C1.11097 10.8895 1.65697 10.8755 2.28697 10.8755C2.95897 10.8755 3.40697 10.8895 3.84097 10.9175C3.96697 10.8335 3.96697 10.5115 3.85497 10.4275L3.63097 10.3995C3.28097 10.3575 3.22497 10.2315 3.22497 9.46149V6.95549C3.22497 6.70349 3.25297 6.53549 3.33697 6.43749C3.44897 6.28349 3.72897 6.10149 4.09297 6.10149C4.76497 6.10149 5.04497 6.54949 5.04497 7.08149V9.46149C5.04497 10.2315 4.98897 10.3575 4.66697 10.3995L4.44297 10.4275C4.33097 10.5115 4.33097 10.8335 4.45697 10.9175C4.82097 10.8895 5.38097 10.8755 5.94097 10.8755C6.57097 10.8755 7.01897 10.8895 7.45297 10.9175C7.57897 10.8335 7.57897 10.5115 7.46697 10.4275L7.24297 10.3995C6.92097 10.3575 6.86497 10.2315 6.86497 9.46149V6.87149C6.86497 6.67549 6.90697 6.53549 6.96297 6.45149C7.06097 6.28349 7.35497 6.10149 7.74697 6.10149C8.39097 6.10149 8.68497 6.54949 8.68497 7.08149V9.46149C8.68497 10.2315 8.62897 10.3575 8.27897 10.3995L8.05497 10.4275C7.94297 10.5115 7.94297 10.8335 8.06897 10.9175C8.44697 10.8895 9.03497 10.8755 9.59497 10.8755C10.267 10.8755 10.799 10.8895 11.233 10.9175C11.359 10.8335 11.359 10.5115 11.247 10.4275L11.023 10.3995C10.561 10.3435 10.505 10.2315 10.505 9.25149V6.84349C10.505 5.87749 9.91697 5.07949 8.81097 5.07949C8.05497 5.07949 7.52297 5.45749 7.21497 5.62549C6.94897 5.76549 6.82297 5.86349 6.76697 5.86349C6.68297 5.86349 6.59897 5.80749 6.43097 5.61149C6.10897 5.24749 5.67497 5.07949 5.17097 5.07949C4.49897 5.07949 3.86897 5.45749 3.56097 5.63949C3.47697 5.68149 3.33697 5.75149 3.29497 5.75149C3.25297 5.75149 3.22497 5.72349 3.22497 5.63949C3.22497 5.54149 3.26697 5.20549 3.26697 5.00949C3.21097 4.92549 3.12697 4.88349 3.01497 4.88349C2.58097 5.13549 1.58697 5.51349 0.942966 5.69549C0.844966 5.77949 0.844966 6.03149 0.942966 6.11549L1.13897 6.24149C1.40497 6.40949 1.40497 6.57749 1.40497 7.13749V9.25149ZM16.7163 7.55749C17.1503 7.55749 17.2203 7.36149 17.2203 7.09549C17.2203 6.01749 16.4363 5.07949 14.9803 5.07949C13.2303 5.07949 11.9563 6.45149 11.9563 8.21549C11.9563 9.74149 12.9783 11.0715 14.8683 11.0715C15.7083 11.0715 16.7443 10.6655 17.3183 9.47549C17.3183 9.23749 17.1083 9.12549 16.9543 9.15349C16.5763 9.79749 16.0443 9.88149 15.6523 9.88149C14.3503 9.88149 13.6783 8.85949 13.6783 7.80949C13.6783 7.58549 13.7063 7.55749 14.0283 7.55749H16.7163ZM14.4343 6.94149C13.9863 6.94149 13.7903 6.92749 13.7903 6.73149C13.7903 6.28349 14.2943 5.72349 14.8823 5.72349C15.3583 5.72349 15.6243 6.03149 15.6243 6.49349C15.6243 6.63349 15.5963 6.77349 15.5263 6.81549C15.3723 6.91349 15.1483 6.94149 14.9523 6.94149H14.4343ZM23.9112 3.00749C23.9112 2.12549 23.9252 1.53749 23.9532 0.963488C23.8972 0.893487 23.8132 0.865488 23.7152 0.865488C23.0292 1.17349 22.1752 1.50949 21.5732 1.64949C21.4752 1.73349 21.4612 1.98549 21.5732 2.06949L21.8112 2.20949C22.0912 2.37749 22.0912 2.53149 22.0912 3.09149V4.88349C22.0912 4.99549 22.0492 5.10749 21.9512 5.14949C21.7972 5.10749 21.4612 5.07949 21.1532 5.07949C19.3052 5.07949 17.8212 6.33949 17.8212 8.31349C17.8212 9.82549 18.8992 11.0715 20.4952 11.0715C21.0132 11.0715 21.5172 10.7775 22.0072 10.4695C22.0632 10.4275 22.1192 10.4695 22.1332 10.5815L22.0912 11.0155C22.1192 11.1275 22.2312 11.2115 22.3292 11.2115C22.3712 11.2115 23.4632 10.7915 24.8492 10.7075C24.9892 10.5815 24.9892 10.2315 24.8352 10.1055C24.5972 10.1895 24.4852 10.2175 24.2332 10.2175C23.9672 10.2175 23.9112 9.89549 23.9112 8.57949V3.00749ZM22.0912 9.43349C22.0912 9.68549 22.0772 9.86749 21.9232 9.96549C21.7412 10.0775 21.5452 10.1335 21.3492 10.1335C20.2012 10.1335 19.7812 8.85949 19.7812 7.93549C19.7812 6.46549 20.4812 5.72349 21.1952 5.72349C21.5172 5.72349 21.8252 5.94749 21.9932 6.24149C22.0492 6.35349 22.0912 6.49349 22.0912 6.71749V9.43349ZM29.6527 11.0155C31.5987 11.0155 32.9987 9.92349 32.9987 8.24349V8.21549C32.9987 6.71749 31.9907 5.91949 29.8067 5.44349C27.6507 4.98149 27.1467 4.46349 27.1467 3.53949V3.51149C27.1467 2.62949 27.9587 1.92949 29.2327 1.92949C30.2407 1.92949 31.1507 2.25149 32.0607 2.99349L32.7047 2.13949C31.7107 1.34149 30.6887 0.935488 29.2607 0.935488C27.3987 0.935488 26.0407 2.06949 26.0407 3.60949V3.63749C26.0407 5.24749 27.0767 5.97549 29.3307 6.46549C31.3887 6.89949 31.8787 7.41749 31.8787 8.32749V8.35549C31.8787 9.32149 31.0107 10.0215 29.6947 10.0215C28.3367 10.0215 27.3567 9.55949 26.3347 8.63549L25.6487 9.44749C26.8247 10.4975 28.0987 11.0155 29.6527 11.0155ZM36.8471 10.9315H37.7991L39.7591 5.21949L41.7051 10.9315H42.6431L45.1911 3.63749H44.0711L42.1671 9.44749L40.2071 3.60949H39.3111L37.3651 9.44749L35.4611 3.63749H34.3131L36.8471 10.9315ZM48.8702 11.0295C50.1442 11.0295 50.9842 10.4415 51.4882 9.78349V10.8755H52.5242V6.45149C52.5242 5.52749 52.2722 4.82749 51.7822 4.33749C51.2502 3.80549 50.4662 3.53949 49.4442 3.53949C48.3942 3.53949 47.6102 3.77749 46.8122 4.14149L47.1342 5.02349C47.8062 4.71549 48.4782 4.49149 49.3322 4.49149C50.6902 4.49149 51.4882 5.16349 51.4882 6.46549V6.71749C50.8442 6.53549 50.1862 6.40949 49.2622 6.40949C47.4282 6.40949 46.1682 7.22149 46.1682 8.74749V8.77549C46.1682 10.2595 47.5262 11.0295 48.8702 11.0295ZM49.0802 10.1755C48.1002 10.1755 47.2602 9.64349 47.2602 8.73349V8.70549C47.2602 7.79549 48.0162 7.20749 49.3742 7.20749C50.2562 7.20749 50.9702 7.36149 51.5022 7.51549V8.21549C51.5022 9.36349 50.4102 10.1755 49.0802 10.1755ZM54.8216 13.1155H55.8996V9.48949C56.4596 10.3015 57.3276 11.0295 58.6716 11.0295C60.4216 11.0295 62.1296 9.62949 62.1296 7.26349V7.23549C62.1296 4.85549 60.4076 3.48349 58.6716 3.48349C57.3416 3.48349 56.4876 4.22549 55.8996 5.09349V3.63749H54.8216V13.1155ZM58.4756 10.0635C57.1316 10.0635 55.8576 8.94349 55.8576 7.26349V7.23549C55.8576 5.58349 57.1316 4.44949 58.4756 4.44949C59.8476 4.44949 61.0236 5.54149 61.0236 7.24949V7.27749C61.0236 9.02749 59.8756 10.0635 58.4756 10.0635Z" fill="black"/>
</svg>
