<svg width="14" height="15" viewBox="0 0 14 15" fill="none" xmlns="http://www.w3.org/2000/svg">
<rect width="13.4435" height="13.4435" transform="translate(0 0.878174)" fill="white"/>
<path d="M9.2423 2.13818H4.201C3.86674 2.13818 3.54617 2.27097 3.30981 2.50732C3.07346 2.74368 2.94067 3.06425 2.94067 3.39851V13.061L6.72165 9.70013L10.5026 13.061V3.39851C10.5026 3.06425 10.3698 2.74368 10.1335 2.50732C9.89713 2.27097 9.57656 2.13818 9.2423 2.13818Z" stroke="#2F80ED" stroke-width="0.840216" stroke-linecap="round" stroke-linejoin="round"/>
<path d="M8.85008 2.45543C9.99912 1.49797 10.0815 8.29865 10.1213 11.7694L6.57579 9.3971L3.16528 12.2694C3.54421 11.3918 4.11058 8.78673 3.34462 5.38778C2.38717 1.13909 7.41378 3.65224 8.85008 2.45543Z" fill="#2F80ED"/>
<path d="M10.1213 11.7694L9.8432 12.1849C9.99744 12.2881 10.1961 12.2974 10.3593 12.209C10.5225 12.1207 10.6233 11.9492 10.6212 11.7636L10.1213 11.7694ZM8.85008 2.45543L8.53 2.0713L8.85008 2.45543ZM3.34462 5.38778L3.83239 5.27786L3.34462 5.38778ZM3.16528 12.2694L2.70624 12.0713C2.61431 12.2842 2.68087 12.5324 2.867 12.6707C3.05314 12.8091 3.30998 12.8013 3.48737 12.6519L3.16528 12.2694ZM6.57579 9.3971L6.85384 8.98154C6.66874 8.85769 6.42404 8.8712 6.2537 9.01466L6.57579 9.3971ZM10.6212 11.7636C10.6014 10.0327 10.5709 7.44579 10.3999 5.40999C10.3151 4.40083 10.1929 3.48539 10.0061 2.87287C9.91875 2.58646 9.78981 2.26694 9.56752 2.0668C9.44041 1.95237 9.2604 1.85759 9.03808 1.86434C8.82573 1.8708 8.65416 1.96785 8.53 2.0713L9.17016 2.83955C9.18963 2.82333 9.15335 2.8613 9.06847 2.86388C8.97362 2.86677 8.91323 2.82331 8.89842 2.80997C8.89066 2.80299 8.9096 2.81828 8.94391 2.88654C8.97628 2.95095 9.01231 3.0423 9.0496 3.1646C9.20264 3.66639 9.31896 4.48851 9.40339 5.49368C9.57077 7.48653 9.60134 10.0353 9.62129 11.7751L10.6212 11.7636ZM8.53 2.0713C8.43788 2.14807 8.29152 2.21536 8.06466 2.26032C7.83882 2.30509 7.56614 2.32149 7.24997 2.32104C6.93357 2.3206 6.60007 2.30378 6.24478 2.28934C5.89634 2.27518 5.53087 2.26358 5.17981 2.27755C4.50657 2.30435 3.74047 2.42688 3.23526 2.96237C2.70492 3.52449 2.60414 4.37627 2.85686 5.4977L3.83239 5.27786C3.60638 4.27494 3.77489 3.84761 3.96263 3.64861C4.17552 3.42297 4.57632 3.30236 5.21958 3.27676C5.52678 3.26453 5.85696 3.27441 6.20418 3.28852C6.54456 3.30235 6.90671 3.32056 7.24858 3.32104C7.59067 3.32152 7.93886 3.30471 8.25909 3.24124C8.5783 3.17797 8.9032 3.06199 9.17016 2.83955L8.53 2.0713ZM2.85686 5.4977C3.60186 8.80364 3.03931 11.2998 2.70624 12.0713L3.62433 12.4676C4.04912 11.4838 4.61931 8.76981 3.83239 5.27786L2.85686 5.4977ZM3.48737 12.6519L6.89788 9.77954L6.2537 9.01466L2.84319 11.887L3.48737 12.6519ZM6.29774 9.81266L9.8432 12.1849L10.3993 11.3538L6.85384 8.98154L6.29774 9.81266Z" fill="#2F80ED"/>
</svg>
