<svg width="49" height="50" viewBox="0 0 49 50" fill="none" xmlns="http://www.w3.org/2000/svg">
<circle cx="24.2798" cy="25.1856" r="23.8384" stroke="#828282" stroke-width="0.829113"/>
<g clip-path="url(#clip0)">
<path d="M34.1386 22.2009H30.5293L32.3064 20.0063C33.2677 20.1095 34.2271 19.7753 34.9175 19.085C35.5234 18.4791 35.8571 17.6734 35.8571 16.8165C35.8571 15.9596 35.5234 15.154 34.9175 14.548C34.3115 13.9421 33.5059 13.6084 32.649 13.6084C31.7921 13.6084 30.9864 13.9421 30.3805 14.548C29.7117 15.2168 29.375 16.1487 29.4529 17.0848L23.135 22.2009H14.4211C13.4736 22.2009 12.7026 22.9718 12.7026 23.9194C12.7026 24.6418 13.151 25.2612 13.7839 25.5148C13.8416 27.4071 14.4044 29.2393 15.4211 30.8325C16.4144 32.3893 17.795 33.654 19.4259 34.5053V36.3106C19.4259 36.5604 19.6283 36.7628 19.8781 36.7628H28.6816C28.9314 36.7628 29.1339 36.5604 29.1339 36.3106V34.5053C30.7647 33.654 32.1453 32.3894 33.1386 30.8326C34.1553 29.2393 34.7181 27.4071 34.7758 25.5148C35.4087 25.2612 35.8571 24.6418 35.8571 23.9194C35.8571 22.9718 35.0861 22.2009 34.1386 22.2009V22.2009ZM30.2172 17.6297C30.3441 17.527 30.4058 17.3638 30.3786 17.2029C30.2541 16.4671 30.494 15.7137 31.0201 15.1876C31.4552 14.7525 32.0336 14.5129 32.649 14.5129C33.2643 14.5129 33.8428 14.7525 34.2779 15.1876C34.713 15.6227 34.9526 16.2012 34.9526 16.8165C34.9526 17.4318 34.713 18.0103 34.2779 18.4454C33.7347 18.9885 32.9595 19.2247 32.2044 19.077C32.0402 19.0448 31.8715 19.1062 31.7662 19.2362L29.3655 22.2009H24.5722L30.2172 17.6297ZM28.2294 35.8584H20.3303V34.6826H28.2294V35.8584H28.2294ZM34.1386 24.7334H26.3207C26.0709 24.7334 25.8684 24.9358 25.8684 25.1856C25.8684 25.4354 26.0709 25.6379 26.3207 25.6379H33.8662C33.7086 29.1239 31.7121 32.2066 28.5695 33.7781H19.9903C16.8476 32.2066 14.8511 29.1239 14.6936 25.6379H22.2505C22.5003 25.6379 22.7028 25.4354 22.7028 25.1856C22.7028 24.9358 22.5003 24.7334 22.2505 24.7334H14.4211C13.9723 24.7334 13.6071 24.3682 13.6071 23.9194C13.6071 23.4705 13.9723 23.1053 14.4211 23.1053H34.1386C34.5874 23.1053 34.9526 23.4705 34.9526 23.9194C34.9526 24.3682 34.5874 24.7334 34.1386 24.7334Z" fill="#828282"/>
<path d="M20.1043 20.1657H21.3339C22.7672 20.1657 23.9333 18.9996 23.9333 17.5663V16.3368C23.9333 16.087 23.7308 15.8845 23.481 15.8845H22.2515C20.8182 15.8845 19.6521 17.0506 19.6521 18.4839V19.7135C19.6521 19.9632 19.8546 20.1657 20.1043 20.1657V20.1657ZM20.5566 18.4839C20.5566 17.5493 21.3169 16.789 22.2515 16.789H23.0288V17.5663C23.0288 18.5009 22.2685 19.2612 21.3339 19.2612H20.5566V18.4839Z" fill="#828282"/>
<path d="M16.3095 17.8139H17.5117C17.7614 17.8139 17.9639 17.6115 17.9639 17.3617V16.1596C17.9638 14.7527 16.8193 13.6082 15.4124 13.6082H14.2103C13.9605 13.6082 13.7581 13.8106 13.7581 14.0604V15.2625C13.7581 16.6694 14.9027 17.8139 16.3095 17.8139V17.8139ZM14.6625 14.5126H15.4124C16.3206 14.5126 17.0594 15.2514 17.0594 16.1596V16.9095H16.3095C15.4014 16.9095 14.6626 16.1707 14.6626 15.2625V14.5126H14.6625Z" fill="#828282"/>
<path d="M16.0458 19.665C15.9617 19.7491 15.9133 19.8658 15.9133 19.9847C15.9133 20.1036 15.9617 20.2203 16.0458 20.3044C16.13 20.3886 16.2466 20.4369 16.3656 20.4369C16.4845 20.4369 16.6012 20.3886 16.6853 20.3044C16.7694 20.2203 16.8178 20.1036 16.8178 19.9847C16.8178 19.8658 16.7694 19.7491 16.6853 19.665C16.6012 19.5809 16.4845 19.5325 16.3656 19.5325C16.2466 19.5325 16.13 19.5809 16.0458 19.665Z" fill="#828282"/>
<path d="M24.286 24.739C24.167 24.739 24.0504 24.787 23.9662 24.8715C23.8821 24.9556 23.8337 25.0719 23.8337 25.1912C23.8337 25.3102 23.8821 25.4269 23.9662 25.511C24.0504 25.5951 24.167 25.6435 24.286 25.6435C24.4049 25.6435 24.5216 25.5951 24.6057 25.511C24.6898 25.4269 24.7382 25.3102 24.7382 25.1912C24.7382 25.0719 24.6898 24.9556 24.6057 24.8715C24.5216 24.787 24.4049 24.739 24.286 24.739Z" fill="#828282"/>
</g>
<defs>
<clipPath id="clip0">
<rect width="23.1544" height="23.1544" fill="white" transform="translate(12.7026 13.6084)"/>
</clipPath>
</defs>
</svg>
